<svg width="263" height="132" viewBox="0 0 263 132" fill="none" xmlns="http://www.w3.org/2000/svg">
<path d="M213.035 62.0558C211.584 60.6081 209.735 59.6222 207.722 59.2227C205.709 58.8232 203.623 59.0282 201.727 59.8116C199.831 60.595 198.21 61.9218 197.07 63.624C195.93 65.3263 195.321 67.3276 195.321 69.3749C195.321 71.4222 195.93 73.4235 197.07 75.1258C198.21 76.828 199.831 78.1548 201.727 78.9382C203.623 79.7216 205.709 79.9266 207.722 79.5271C209.735 79.1276 211.584 78.1417 213.035 76.694C214.981 74.7528 216.074 72.1201 216.074 69.3749C216.074 66.6298 214.981 63.997 213.035 62.0558V62.0558Z" fill="#FFFEFE"/>
<path d="M247.782 25.1281C247.782 26.1424 247.481 27.1338 246.916 27.9771C246.351 28.8204 245.548 29.4777 244.609 29.8659C243.67 30.254 242.636 30.3555 241.639 30.1577C240.642 29.9598 239.726 29.4714 239.007 28.7542C238.288 28.037 237.798 27.1233 237.6 26.1286C237.401 25.1338 237.503 24.1027 237.892 23.1657C238.281 22.2286 238.94 21.4277 239.786 20.8643C240.631 20.3008 241.625 20 242.642 20C243.317 19.9982 243.987 20.1296 244.611 20.3867C245.236 20.6438 245.803 21.0215 246.281 21.498C246.758 21.9746 247.137 22.5406 247.395 23.1636C247.652 23.7865 247.784 24.4542 247.782 25.1281V25.1281Z" fill="#FEFCFF"/>
<path d="M162.281 93.9368C162.281 94.9511 161.98 95.9425 161.415 96.7858C160.85 97.6292 160.047 98.2864 159.108 98.6746C158.169 99.0627 157.135 99.1643 156.138 98.9664C155.141 98.7685 154.225 98.2801 153.506 97.5629C152.787 96.8458 152.297 95.932 152.099 94.9373C151.9 93.9425 152.002 92.9114 152.391 91.9744C152.78 91.0374 153.439 90.2365 154.285 89.673C155.13 89.1095 156.124 88.8087 157.141 88.8087C157.816 88.8069 158.486 88.9384 159.11 89.1954C159.735 89.4525 160.302 89.8302 160.78 90.3067C161.257 90.7833 161.636 91.3493 161.894 91.9723C162.151 92.5953 162.283 93.2629 162.281 93.9368V93.9368Z" fill="white"/>
<path d="M220.42 53.9838C217.88 51.5581 214.776 49.7998 211.386 48.8668C207.996 47.9338 204.427 47.8554 201 48.6386C200.476 47.7601 199.675 47.0793 198.722 46.7026C197.77 46.326 196.719 46.2747 195.734 46.5567C194.749 46.8388 193.886 47.4383 193.278 48.2616C192.671 49.085 192.354 50.0858 192.377 51.1077C192.387 51.6058 192.489 52.0978 192.677 52.5593C191.857 53.195 191.08 53.8838 190.351 54.6214C187.447 57.6527 185.509 61.4747 184.782 65.6044C184.055 69.7341 184.572 73.9861 186.267 77.8229C187.962 81.6597 190.76 84.9091 194.306 87.1602C197.852 89.4114 201.987 90.5634 206.189 90.4705C210.391 90.3776 214.472 89.044 217.914 86.6383C221.357 84.2326 224.007 80.8628 225.53 76.9549C227.053 73.047 227.38 68.7763 226.471 64.6828C225.561 60.5893 223.456 56.8566 220.42 53.9567V53.9838ZM220.025 82.9616C216.331 86.4382 211.44 88.366 206.361 88.3465C201.282 88.327 196.406 86.3617 192.739 82.8569C189.071 79.352 186.894 74.5756 186.658 69.515C186.421 64.4543 188.142 59.4964 191.466 55.666C192.072 55.0425 192.717 54.458 193.397 53.916C193.991 54.7101 194.826 55.2923 195.777 55.5765C196.729 55.8607 197.747 55.8317 198.68 55.4938C199.614 55.156 200.414 54.5272 200.961 53.7006C201.509 52.874 201.775 51.8935 201.72 50.9042C201.719 50.6025 201.683 50.302 201.612 50.0088C205.746 49.1412 210.051 49.6159 213.896 51.3633C217.741 53.1108 220.925 56.0394 222.983 59.7211C225.04 63.4028 225.863 67.6444 225.331 71.8259C224.799 76.0074 222.94 79.9094 220.025 82.9616Z" fill="white"/>
<path d="M257.329 94.5338C257.329 95.2722 257.11 95.9941 256.698 96.6079C256.286 97.2217 255.702 97.6998 255.017 97.9818C254.333 98.2638 253.581 98.3369 252.855 98.1918C252.129 98.0468 251.462 97.6901 250.94 97.167C250.418 96.6439 250.062 95.9778 249.92 95.2532C249.777 94.5287 249.853 93.7781 250.138 93.0966C250.423 92.4152 250.905 91.8335 251.521 91.4251C252.138 91.0168 252.863 90.8003 253.603 90.803C254.093 90.803 254.579 90.8996 255.032 91.0872C255.485 91.2749 255.896 91.5499 256.243 91.8965C256.589 92.2431 256.863 92.6545 257.049 93.1071C257.236 93.5596 257.331 94.0445 257.329 94.5338V94.5338Z" fill="white"/>
<path d="M255.289 54.5943C255.291 53.4369 255.064 52.2906 254.621 51.2208C254.179 50.151 253.529 49.1788 252.709 48.3598C251.889 47.5407 250.916 46.891 249.844 46.4477C248.772 46.0043 247.623 45.7762 246.463 45.7762C245.659 45.7798 244.859 45.8892 244.083 46.1018C240.608 40.4051 235.881 35.5702 230.26 31.9618C224.638 28.3533 218.268 26.0657 211.631 25.2713C204.994 24.477 198.262 25.1968 191.944 27.3764C185.627 29.5559 179.888 33.1384 175.16 37.8534C171.179 41.821 167.998 46.5139 165.79 51.6775C165.342 51.5908 164.887 51.5454 164.43 51.5419C162.684 51.5319 160.993 52.1524 159.669 53.2888C158.346 54.4253 157.479 56.0009 157.228 57.725C156.978 59.4491 157.362 61.2053 158.308 62.6695C159.254 64.1337 160.699 65.2071 162.377 65.6916C161.914 71.8623 162.76 78.0611 164.86 83.8835C166.961 89.7059 170.268 95.0212 174.566 99.4826C178.865 103.944 184.058 107.451 189.807 109.776C195.556 112.1 201.731 113.19 207.93 112.973C214.13 112.756 220.214 111.238 225.785 108.518C231.357 105.797 236.291 101.936 240.265 97.1852C244.24 92.4344 247.166 86.9012 248.853 80.9463C250.539 74.9915 250.948 68.7488 250.053 62.6256C251.611 61.9355 252.935 60.8095 253.864 59.384C254.794 57.9585 255.289 56.2947 255.289 54.5943ZM235.434 98.0068C229.501 103.928 221.892 107.895 213.631 109.374C205.37 110.853 196.854 109.772 189.227 106.277C181.6 102.783 175.229 97.0423 170.971 89.8276C166.713 82.6129 164.772 74.2703 165.409 65.9223C166.849 65.7288 168.197 65.1066 169.277 64.137C170.357 63.1674 171.118 61.8954 171.462 60.4873C171.805 59.0791 171.715 57.6003 171.203 56.244C170.691 54.8878 169.781 53.7171 168.592 52.885C171.546 45.9789 176.346 40.0157 182.468 35.6466C188.589 31.2774 195.797 28.6705 203.303 28.1104C210.809 27.5504 218.325 29.0588 225.03 32.4709C231.735 35.8831 237.371 41.0677 241.322 47.4584C239.807 48.5453 238.675 50.0837 238.091 51.8525C237.507 53.6212 237.5 55.5292 238.071 57.3022C238.642 59.0751 239.762 60.6217 241.27 61.7197C242.778 62.8176 244.596 63.4102 246.463 63.4125H247.075C247.949 69.6821 247.353 76.0685 245.333 82.0691C243.313 88.0697 239.924 93.5208 235.434 97.9932V98.0068Z" fill="white"/>
<path d="M228.552 46.5088C224.384 42.346 219.154 39.4002 213.427 37.9904C207.701 36.5806 201.697 36.7605 196.066 38.5106C190.435 40.2607 185.391 43.5144 181.48 47.9192C177.57 52.324 174.942 57.7121 173.882 63.4999C172.821 69.2878 173.368 75.2548 175.464 80.7547C177.559 86.2546 181.123 91.0778 185.77 94.7019C190.416 98.3261 195.968 100.613 201.824 101.315C207.68 102.017 213.617 101.108 218.992 98.6851C219.955 99.7071 221.254 100.35 222.653 100.496C224.051 100.641 225.456 100.281 226.61 99.4799C227.764 98.6789 228.591 97.4906 228.94 96.1318C229.289 94.7731 229.137 93.3344 228.512 92.0783C234.572 86.0393 237.981 77.847 237.988 69.302C237.996 60.7569 234.602 52.5585 228.552 46.5088V46.5088ZM184.422 90.5453C180.22 86.355 177.355 81.0178 176.189 75.2062C175.022 69.3946 175.606 63.3687 177.867 57.8877C180.128 52.4067 183.965 47.7159 188.894 44.4064C193.823 41.097 199.624 39.3169 205.565 39.2905C211.506 39.2641 217.323 40.9925 222.281 44.2581C227.239 47.5236 231.118 52.1801 233.428 57.6408C235.737 63.1015 236.375 69.122 235.261 74.9438C234.146 80.7655 231.33 86.1279 227.165 90.3554C226.312 89.6284 225.268 89.1608 224.157 89.0081C223.046 88.8554 221.914 89.024 220.896 89.494C219.878 89.9639 219.016 90.7154 218.414 91.6593C217.811 92.6031 217.492 93.6997 217.496 94.8187C217.502 95.4896 217.621 96.1547 217.849 96.7858C212.297 99.2311 206.133 99.9437 200.167 98.8299C194.201 97.7161 188.712 94.8281 184.422 90.5453V90.5453Z" fill="white"/>
<path d="M28.8242 60.7266H19.5781L17.8203 66H12.2129L21.7402 40.4062H26.627L36.207 66H30.5996L28.8242 60.7266ZM21.002 56.4551H27.4004L24.1836 46.875L21.002 56.4551ZM43.625 66H38.5273V39H43.625V66ZM56.5801 66.3516C53.791 66.3516 51.5176 65.4961 49.7598 63.7852C48.0137 62.0742 47.1406 59.7949 47.1406 56.9473V56.4551C47.1406 54.5449 47.5098 52.8398 48.248 51.3398C48.9863 49.8281 50.0293 48.668 51.377 47.8594C52.7363 47.0391 54.2832 46.6289 56.0176 46.6289C58.6191 46.6289 60.6641 47.4492 62.1523 49.0898C63.6523 50.7305 64.4023 53.0566 64.4023 56.0684V58.1426H52.291C52.4551 59.3848 52.9473 60.3809 53.7676 61.1309C54.5996 61.8809 55.6484 62.2559 56.9141 62.2559C58.8711 62.2559 60.4004 61.5469 61.502 60.1289L63.998 62.9238C63.2363 64.002 62.2051 64.8457 60.9043 65.4551C59.6035 66.0527 58.1621 66.3516 56.5801 66.3516ZM56 50.7422C54.9922 50.7422 54.1719 51.082 53.5391 51.7617C52.918 52.4414 52.5195 53.4141 52.3438 54.6797H59.4102V54.2754C59.3867 53.1504 59.082 52.2832 58.4961 51.6738C57.9102 51.0527 57.0781 50.7422 56 50.7422ZM73.3848 42.3047V46.9805H76.6367V50.707H73.3848V60.1992C73.3848 60.9023 73.5195 61.4062 73.7891 61.7109C74.0586 62.0156 74.5742 62.168 75.3359 62.168C75.8984 62.168 76.3965 62.127 76.8301 62.0449V65.8945C75.834 66.1992 74.8086 66.3516 73.7539 66.3516C70.1914 66.3516 68.375 64.5527 68.3047 60.9551V50.707H65.5273V46.9805H68.3047V42.3047H73.3848ZM84.4238 49.0547C85.7715 47.4375 87.4648 46.6289 89.5039 46.6289C93.6289 46.6289 95.7207 49.0254 95.7793 53.8184V66H90.6992V53.959C90.6992 52.8691 90.4648 52.0664 89.9961 51.5508C89.5273 51.0234 88.748 50.7598 87.6582 50.7598C86.1699 50.7598 85.0918 51.334 84.4238 52.4824V66H79.3438V39H84.4238V49.0547ZM108.365 66.3516C105.576 66.3516 103.303 65.4961 101.545 63.7852C99.7988 62.0742 98.9258 59.7949 98.9258 56.9473V56.4551C98.9258 54.5449 99.2949 52.8398 100.033 51.3398C100.771 49.8281 101.814 48.668 103.162 47.8594C104.521 47.0391 106.068 46.6289 107.803 46.6289C110.404 46.6289 112.449 47.4492 113.938 49.0898C115.438 50.7305 116.188 53.0566 116.188 56.0684V58.1426H104.076C104.24 59.3848 104.732 60.3809 105.553 61.1309C106.385 61.8809 107.434 62.2559 108.699 62.2559C110.656 62.2559 112.186 61.5469 113.287 60.1289L115.783 62.9238C115.021 64.002 113.99 64.8457 112.689 65.4551C111.389 66.0527 109.947 66.3516 108.365 66.3516ZM107.785 50.7422C106.777 50.7422 105.957 51.082 105.324 51.7617C104.703 52.4414 104.305 53.4141 104.129 54.6797H111.195V54.2754C111.172 53.1504 110.867 52.2832 110.281 51.6738C109.695 51.0527 108.863 50.7422 107.785 50.7422ZM124.449 66H119.352V46.9805H124.449V66ZM119.053 42.0586C119.053 41.2969 119.305 40.6699 119.809 40.1777C120.324 39.6855 121.021 39.4395 121.9 39.4395C122.768 39.4395 123.459 39.6855 123.975 40.1777C124.49 40.6699 124.748 41.2969 124.748 42.0586C124.748 42.832 124.484 43.4648 123.957 43.957C123.441 44.4492 122.756 44.6953 121.9 44.6953C121.045 44.6953 120.354 44.4492 119.826 43.957C119.311 43.4648 119.053 42.832 119.053 42.0586ZM139.672 66C139.438 65.543 139.268 64.9746 139.162 64.2949C137.932 65.666 136.332 66.3516 134.363 66.3516C132.5 66.3516 130.953 65.8125 129.723 64.7344C128.504 63.6562 127.895 62.2969 127.895 60.6562C127.895 58.6406 128.639 57.0938 130.127 56.0156C131.627 54.9375 133.789 54.3926 136.613 54.3809H138.951V53.291C138.951 52.4121 138.723 51.709 138.266 51.1816C137.82 50.6543 137.111 50.3906 136.139 50.3906C135.283 50.3906 134.609 50.5957 134.117 51.0059C133.637 51.416 133.396 51.9785 133.396 52.6934H128.316C128.316 51.5918 128.656 50.5723 129.336 49.6348C130.016 48.6973 130.977 47.9648 132.219 47.4375C133.461 46.8984 134.855 46.6289 136.402 46.6289C138.746 46.6289 140.604 47.2207 141.975 48.4043C143.357 49.5762 144.049 51.2285 144.049 53.3613V61.6055C144.061 63.4102 144.312 64.7754 144.805 65.7012V66H139.672ZM135.471 62.4668C136.221 62.4668 136.912 62.3027 137.545 61.9746C138.178 61.6348 138.646 61.1836 138.951 60.6211V57.3516H137.053C134.51 57.3516 133.156 58.2305 132.992 59.9883L132.975 60.2871C132.975 60.9199 133.197 61.4414 133.643 61.8516C134.088 62.2617 134.697 62.4668 135.471 62.4668ZM76.1094 88.3496C76.1094 85.3848 76.7715 83.0234 78.0957 81.2656C79.4316 79.5078 81.2539 78.6289 83.5625 78.6289C85.4141 78.6289 86.9434 79.3203 88.1504 80.7031V71H93.248V98H88.6602L88.4141 95.9785C87.1484 97.5605 85.5195 98.3516 83.5273 98.3516C81.2891 98.3516 79.4902 97.4727 78.1309 95.7148C76.7832 93.9453 76.1094 91.4902 76.1094 88.3496ZM81.1895 88.7188C81.1895 90.5 81.5 91.8652 82.1211 92.8145C82.7422 93.7637 83.6445 94.2383 84.8281 94.2383C86.3984 94.2383 87.5059 93.5762 88.1504 92.252V84.7461C87.5176 83.4219 86.4219 82.7598 84.8633 82.7598C82.4141 82.7598 81.1895 84.7461 81.1895 88.7188ZM108.207 98C107.973 97.543 107.803 96.9746 107.697 96.2949C106.467 97.666 104.867 98.3516 102.898 98.3516C101.035 98.3516 99.4883 97.8125 98.2578 96.7344C97.0391 95.6562 96.4297 94.2969 96.4297 92.6562C96.4297 90.6406 97.1738 89.0938 98.6621 88.0156C100.162 86.9375 102.324 86.3926 105.148 86.3809H107.486V85.291C107.486 84.4121 107.258 83.709 106.801 83.1816C106.355 82.6543 105.646 82.3906 104.674 82.3906C103.818 82.3906 103.145 82.5957 102.652 83.0059C102.172 83.416 101.932 83.9785 101.932 84.6934H96.8516C96.8516 83.5918 97.1914 82.5723 97.8711 81.6348C98.5508 80.6973 99.5117 79.9648 100.754 79.4375C101.996 78.8984 103.391 78.6289 104.938 78.6289C107.281 78.6289 109.139 79.2207 110.51 80.4043C111.893 81.5762 112.584 83.2285 112.584 85.3613V93.6055C112.596 95.4102 112.848 96.7754 113.34 97.7012V98H108.207ZM104.006 94.4668C104.756 94.4668 105.447 94.3027 106.08 93.9746C106.713 93.6348 107.182 93.1836 107.486 92.6211V89.3516H105.588C103.045 89.3516 101.691 90.2305 101.527 91.9883L101.51 92.2871C101.51 92.9199 101.732 93.4414 102.178 93.8516C102.623 94.2617 103.232 94.4668 104.006 94.4668ZM122.568 74.3047V78.9805H125.82V82.707H122.568V92.1992C122.568 92.9023 122.703 93.4062 122.973 93.7109C123.242 94.0156 123.758 94.168 124.52 94.168C125.082 94.168 125.58 94.127 126.014 94.0449V97.8945C125.018 98.1992 123.992 98.3516 122.938 98.3516C119.375 98.3516 117.559 96.5527 117.488 92.9551V82.707H114.711V78.9805H117.488V74.3047H122.568ZM139.672 98C139.438 97.543 139.268 96.9746 139.162 96.2949C137.932 97.666 136.332 98.3516 134.363 98.3516C132.5 98.3516 130.953 97.8125 129.723 96.7344C128.504 95.6562 127.895 94.2969 127.895 92.6562C127.895 90.6406 128.639 89.0938 130.127 88.0156C131.627 86.9375 133.789 86.3926 136.613 86.3809H138.951V85.291C138.951 84.4121 138.723 83.709 138.266 83.1816C137.82 82.6543 137.111 82.3906 136.139 82.3906C135.283 82.3906 134.609 82.5957 134.117 83.0059C133.637 83.416 133.396 83.9785 133.396 84.6934H128.316C128.316 83.5918 128.656 82.5723 129.336 81.6348C130.016 80.6973 130.977 79.9648 132.219 79.4375C133.461 78.8984 134.855 78.6289 136.402 78.6289C138.746 78.6289 140.604 79.2207 141.975 80.4043C143.357 81.5762 144.049 83.2285 144.049 85.3613V93.6055C144.061 95.4102 144.312 96.7754 144.805 97.7012V98H139.672ZM135.471 94.4668C136.221 94.4668 136.912 94.3027 137.545 93.9746C138.178 93.6348 138.646 93.1836 138.951 92.6211V89.3516H137.053C134.51 89.3516 133.156 90.2305 132.992 91.9883L132.975 92.2871C132.975 92.9199 133.197 93.4414 133.643 93.8516C134.088 94.2617 134.697 94.4668 135.471 94.4668Z" fill="white"/>
</svg>
