<svg width="394" height="100" viewBox="0 0 394 100" fill="none" xmlns="http://www.w3.org/2000/svg">
<path d="M0.78125 49.9844V23.6172L24.2188 0.179688V49.9844C24.2188 54.8281 25.9375 58.9688 29.375 62.4062C32.8125 65.8438 36.9531 67.5625 41.7969 67.5625H53.5156C58.3594 67.5625 62.5 65.8438 65.9375 62.4062C69.375 58.9688 71.0938 54.8281 71.0938 49.9844V8.96875H94.5312V49.9844C94.5312 61.3125 90.5273 70.9805 82.5195 78.9883C74.5117 86.9961 64.8438 91 53.5156 91H41.7969C30.4688 91 20.8008 86.9961 12.793 78.9883C4.78516 70.9805 0.78125 61.3125 0.78125 49.9844ZM167.773 8.96875C175.039 8.96875 181.25 11.5469 186.406 16.7031C191.562 21.8594 194.141 28.0703 194.141 35.3359C194.141 42.6016 191.562 48.8125 186.406 53.9688C183.477 56.8984 180.195 58.9883 176.562 60.2383L207.324 91H174.16L123.828 40.668V99.7891L100.391 76.3516V8.96875H167.773ZM123.828 32.4062V38.2656H167.773C168.594 38.2656 169.277 37.9922 169.824 37.4453C170.41 36.8594 170.703 36.1562 170.703 35.3359C170.703 34.5156 170.41 33.832 169.824 33.2852C169.277 32.6992 168.594 32.4062 167.773 32.4062H123.828ZM267.383 8.96875C274.648 8.96875 280.859 11.5469 286.016 16.7031C291.172 21.8594 293.75 28.0703 293.75 35.3359C293.75 40.8047 292.285 45.6875 289.355 49.9844C292.285 54.2812 293.75 59.1641 293.75 64.6328C293.75 71.8984 291.172 78.1094 286.016 83.2656C280.859 88.4219 274.648 91 267.383 91H249.805L226.367 67.5625H267.383C268.203 67.5625 268.887 67.2891 269.434 66.7422C270.02 66.1562 270.312 65.4531 270.312 64.6328C270.312 63.8125 270.02 63.1289 269.434 62.582C268.887 61.9961 268.203 61.7031 267.383 61.7031H223.438V99.7891L200 76.3516V8.96875H267.383ZM223.438 32.4062V38.2656H267.383C268.203 38.2656 268.887 37.9922 269.434 37.4453C270.02 36.8594 270.312 36.1562 270.312 35.3359C270.312 34.5156 270.02 33.832 269.434 33.2852C268.887 32.6992 268.203 32.4062 267.383 32.4062H223.438ZM369.922 56.8398V0.179688L393.359 23.6172V91H370.918L323.047 43.1289V99.7891L299.609 76.3516V8.96875H322.051L369.922 56.8398Z" fill="white"/>
</svg>
